<svg width="178" height="39" viewBox="0 0 178 39" fill="none" xmlns="http://www.w3.org/2000/svg">
<path d="M16.6136 15.4091C16.5152 15.0076 16.3598 14.6553 16.1477 14.3523C15.9356 14.0417 15.6705 13.7803 15.3523 13.5682C15.0417 13.3485 14.678 13.1856 14.2614 13.0795C13.8523 12.9659 13.4015 12.9091 12.9091 12.9091C11.8485 12.9091 10.9432 13.1629 10.1932 13.6705C9.45076 14.178 8.88258 14.9091 8.48864 15.8636C8.10227 16.8182 7.90909 17.9697 7.90909 19.3182C7.90909 20.6818 8.0947 21.8485 8.46591 22.8182C8.83712 23.7879 9.39015 24.5303 10.125 25.0455C10.8598 25.5606 11.7727 25.8182 12.8636 25.8182C13.8258 25.8182 14.625 25.678 15.2614 25.3977C15.9053 25.1174 16.3864 24.7197 16.7045 24.2045C17.0227 23.6894 17.1818 23.0833 17.1818 22.3864L18.2727 22.5H12.9545V18H23.2727V21.2273C23.2727 23.3485 22.822 25.1629 21.9205 26.6705C21.0265 28.1705 19.7917 29.322 18.2159 30.125C16.6477 30.9205 14.8485 31.3182 12.8182 31.3182C10.553 31.3182 8.56439 30.8371 6.85227 29.875C5.14015 28.9129 3.80303 27.5417 2.84091 25.7614C1.88636 23.9811 1.40909 21.8636 1.40909 19.4091C1.40909 17.4848 1.70076 15.7803 2.28409 14.2955C2.875 12.8106 3.69318 11.5568 4.73864 10.5341C5.78409 9.50379 6.99242 8.72727 8.36364 8.20454C9.73485 7.67424 11.2045 7.40909 12.7727 7.40909C14.1515 7.40909 15.4318 7.60606 16.6136 8C17.803 8.38636 18.8523 8.93939 19.7614 9.65909C20.678 10.3712 21.4167 11.2159 21.9773 12.1932C22.5379 13.1705 22.8788 14.2424 23 15.4091H16.6136ZM30.6987 31V7.72727H40.7442C42.4715 7.72727 43.9828 8.04167 45.2783 8.67045C46.5738 9.29924 47.5813 10.2045 48.301 11.3864C49.0207 12.5682 49.3806 13.9848 49.3806 15.6364C49.3806 17.303 49.0094 18.7083 48.2669 19.8523C47.5321 20.9962 46.498 21.8598 45.1647 22.4432C43.8389 23.0265 42.2897 23.3182 40.5169 23.3182H34.5169V18.4091H39.2442C39.9866 18.4091 40.6192 18.3182 41.1419 18.1364C41.6722 17.947 42.0775 17.6477 42.3578 17.2386C42.6457 16.8295 42.7897 16.2955 42.7897 15.6364C42.7897 14.9697 42.6457 14.428 42.3578 14.0114C42.0775 13.5871 41.6722 13.2765 41.1419 13.0795C40.6192 12.875 39.9866 12.7727 39.2442 12.7727H37.0169V31H30.6987ZM44.3351 20.3182L50.1533 31H43.2897L37.6078 20.3182H44.3351ZM79.0992 19.3636C79.0992 21.9545 78.5954 24.1402 77.5878 25.9205C76.5803 27.6932 75.2204 29.0379 73.5083 29.9545C71.7962 30.8636 69.8871 31.3182 67.781 31.3182C65.6598 31.3182 63.7431 30.8598 62.031 29.9432C60.3265 29.0189 58.9704 27.6705 57.9628 25.8977C56.9628 24.1174 56.4628 21.9394 56.4628 19.3636C56.4628 16.7727 56.9628 14.5909 57.9628 12.8182C58.9704 11.0379 60.3265 9.69318 62.031 8.78409C63.7431 7.86742 65.6598 7.40909 67.781 7.40909C69.8871 7.40909 71.7962 7.86742 73.5083 8.78409C75.2204 9.69318 76.5803 11.0379 77.5878 12.8182C78.5954 14.5909 79.0992 16.7727 79.0992 19.3636ZM72.5992 19.3636C72.5992 17.9697 72.4136 16.7955 72.0424 15.8409C71.6787 14.8788 71.1371 14.1515 70.4174 13.6591C69.7053 13.1591 68.8265 12.9091 67.781 12.9091C66.7356 12.9091 65.853 13.1591 65.1333 13.6591C64.4212 14.1515 63.8795 14.8788 63.5083 15.8409C63.1447 16.7955 62.9628 17.9697 62.9628 19.3636C62.9628 20.7576 63.1447 21.9356 63.5083 22.8977C63.8795 23.8523 64.4212 24.5795 65.1333 25.0795C65.853 25.572 66.7356 25.8182 67.781 25.8182C68.8265 25.8182 69.7053 25.572 70.4174 25.0795C71.1371 24.5795 71.6787 23.8523 72.0424 22.8977C72.4136 21.9356 72.5992 20.7576 72.5992 19.3636ZM109.048 19.3636C109.048 21.9545 108.544 24.1402 107.537 25.9205C106.529 27.6932 105.169 29.0379 103.457 29.9545C101.745 30.8636 99.8358 31.3182 97.7298 31.3182C95.6086 31.3182 93.6919 30.8598 91.9798 29.9432C90.2752 29.0189 88.9192 27.6705 87.9116 25.8977C86.9116 24.1174 86.4116 21.9394 86.4116 19.3636C86.4116 16.7727 86.9116 14.5909 87.9116 12.8182C88.9192 11.0379 90.2752 9.69318 91.9798 8.78409C93.6919 7.86742 95.6086 7.40909 97.7298 7.40909C99.8358 7.40909 101.745 7.86742 103.457 8.78409C105.169 9.69318 106.529 11.0379 107.537 12.8182C108.544 14.5909 109.048 16.7727 109.048 19.3636ZM102.548 19.3636C102.548 17.9697 102.362 16.7955 101.991 15.8409C101.628 14.8788 101.086 14.1515 100.366 13.6591C99.654 13.1591 98.7752 12.9091 97.7298 12.9091C96.6843 12.9091 95.8017 13.1591 95.082 13.6591C94.3699 14.1515 93.8283 14.8788 93.457 15.8409C93.0934 16.7955 92.9116 17.9697 92.9116 19.3636C92.9116 20.7576 93.0934 21.9356 93.457 22.8977C93.8283 23.8523 94.3699 24.5795 95.082 25.0795C95.8017 25.572 96.6843 25.8182 97.7298 25.8182C98.7752 25.8182 99.654 25.572 100.366 25.0795C101.086 24.5795 101.628 23.8523 101.991 22.8977C102.362 21.9356 102.548 20.7576 102.548 19.3636ZM121.346 7.72727L126.119 24.1364H126.301L131.073 7.72727H138.21L130.528 31H121.892L114.21 7.72727H121.346ZM151.249 7.72727V31H144.931V7.72727H151.249ZM158.724 31V7.72727H175.496V12.8182H165.042V16.8182H174.633V21.9091H165.042V25.9091H175.451V31H158.724Z" fill="url(#paint0_linear_20_555)"/>
<defs>
<linearGradient id="paint0_linear_20_555" x1="0" y1="19.5" x2="178" y2="19.5" gradientUnits="userSpaceOnUse">
<stop stop-color="white"/>
<stop offset="1" stop-color="#999999"/>
</linearGradient>
</defs>
</svg>
